<svg width="136" height="50" viewBox="0 0 136 50" fill="none" xmlns="http://www.w3.org/2000/svg">
<path d="M5.78286 45.2743C8.59428 45.2743 11.04 43.7429 11.04 40.4743V29H9.44V40.4743C9.44 42.7829 7.86286 43.72 5.78286 43.72C4.11428 43.72 2.78857 43.1257 2.26286 41.7314L0.914284 42.5314C1.71428 44.3829 3.63428 45.2743 5.78286 45.2743Z" fill="#414141"/>
<path d="M23.4937 33.5714V35.8114C22.5338 34.28 20.9109 33.2971 18.8766 33.2971C15.6537 33.2971 12.9795 35.9029 12.9795 39.2857C12.9795 42.6686 15.6537 45.2743 18.8766 45.2743C20.9109 45.2743 22.5338 44.2914 23.4937 42.76V45H25.0023V33.5714H23.4937ZM18.9909 43.8114C16.4537 43.8114 14.488 41.8229 14.488 39.2857C14.488 36.7486 16.4537 34.76 18.9909 34.76C21.528 34.76 23.4937 36.7486 23.4937 39.2857C23.4937 41.8229 21.528 43.8114 18.9909 43.8114Z" fill="#414141"/>
<path d="M33.865 33.2971C31.8307 33.2971 30.2079 34.28 29.2479 35.8114V33.5714H27.7393V49.5714H29.2479V42.76C30.2079 44.2914 31.8307 45.2743 33.865 45.2743C37.0879 45.2743 39.7621 42.6686 39.7621 39.2857C39.7621 35.9029 37.0879 33.2971 33.865 33.2971ZM33.7507 43.8114C31.2136 43.8114 29.2479 41.8229 29.2479 39.2857C29.2479 36.7486 31.2136 34.76 33.7507 34.76C36.2879 34.76 38.2536 36.7486 38.2536 39.2857C38.2536 41.8229 36.2879 43.8114 33.7507 43.8114Z" fill="#414141"/>
<path d="M51.642 33.5714V35.8114C50.682 34.28 49.0591 33.2971 47.0248 33.2971C43.802 33.2971 41.1277 35.9029 41.1277 39.2857C41.1277 42.6686 43.802 45.2743 47.0248 45.2743C49.0591 45.2743 50.682 44.2914 51.642 42.76V45H53.1505V33.5714H51.642ZM47.1391 43.8114C44.602 43.8114 42.6362 41.8229 42.6362 39.2857C42.6362 36.7486 44.602 34.76 47.1391 34.76C49.6763 34.76 51.642 36.7486 51.642 39.2857C51.642 41.8229 49.6763 43.8114 47.1391 43.8114Z" fill="#414141"/>
<path d="M61.2361 33.2971C59.6132 33.2971 58.2875 33.9143 57.3961 35.3543V33.5714H55.8875V45H57.3961V39.0114C57.3961 35.9486 59.0875 34.76 61.0989 34.76C63.0875 34.76 64.2075 35.9486 64.2075 37.9829V45H65.7161V37.9829C65.7161 35.1257 64.0246 33.2971 61.2361 33.2971Z" fill="#414141"/>
<path d="M101.324 0.494003H97.5809V22.6887H112.121V18.989H101.324V0.494003Z" fill="#D30000"/>
<path d="M118.494 8.73426L112.734 0.494003H108.186L116.619 12.5636V22.6887H120.362V12.5706L128.801 0.494003H124.253L118.494 8.73426Z" fill="#D30000"/>
<path d="M83.7359 0.494003H79.9929V22.6887H94.529V18.989H83.7359V0.494003Z" fill="#D30000"/>
<path d="M76.0798 0.494003H72.3367V22.6887H76.0798V0.494003Z" fill="#D30000"/>
<path d="M52.7993 22.6887H68.4094V18.989H56.5387V13.443H67.8387V9.73977H56.5387V4.19371H68.4094V0.494003H52.7993V22.6887Z" fill="#D30000"/>
<path d="M49.0457 6.96849C49.0447 5.25164 48.3543 3.60536 47.1261 2.39136C45.8979 1.17736 44.2323 0.494932 42.4954 0.494003H31.2132V22.6887H34.9562V13.443H40.1702L45.8166 22.6887H50.1799L44.374 13.1662C45.723 12.7664 46.9059 11.9477 47.7474 10.8314C48.5888 9.71511 49.0441 8.36057 49.0457 6.96849ZM34.9562 9.74327V4.20422H42.4954C43.2399 4.20422 43.954 4.49656 44.4804 5.01694C45.0069 5.53731 45.3027 6.24309 45.3027 6.979C45.3027 7.71492 45.0069 8.4207 44.4804 8.94107C43.954 9.46144 43.2399 9.75378 42.4954 9.75378L34.9562 9.74327Z" fill="#D30000"/>
<path d="M11.6969 0.133142C9.38351 0.133142 7.12203 0.811218 5.19847 2.08162C3.27492 3.35202 1.7757 5.1577 0.890382 7.2703C0.00506812 9.38291 -0.22657 11.7076 0.224759 13.9503C0.676088 16.193 1.79011 18.2531 3.42596 19.87C5.06181 21.4869 7.146 22.5881 9.41499 23.0342C11.684 23.4803 14.0358 23.2513 16.1732 22.3762C18.3105 21.5012 20.1373 20.0193 21.4226 18.118C22.7079 16.2167 23.3939 13.9814 23.3939 11.6947C23.3939 10.1764 23.0913 8.67302 22.5035 7.2703C21.9157 5.86759 21.0541 4.59305 19.9679 3.51945C18.8818 2.44586 17.5923 1.59424 16.1732 1.01322C14.754 0.432192 13.233 0.133142 11.6969 0.133142ZM17.3186 17.2513C16.0175 18.5377 14.3053 19.3384 12.4739 19.5169C10.6425 19.6954 8.80509 19.2407 7.27487 18.2302C5.74464 17.2197 4.61626 15.716 4.08201 13.9753C3.54777 12.2346 3.64072 10.3647 4.34503 8.68416C5.04934 7.00363 6.32142 5.6165 7.9445 4.75915C9.56758 3.90179 11.4412 3.62728 13.2461 3.98237C15.051 4.33747 16.6755 5.30021 17.8427 6.70652C19.01 8.11284 19.6477 9.87571 19.6473 11.6947C19.6492 12.727 19.4444 13.7494 19.0448 14.703C18.6451 15.6567 18.0584 16.5228 17.3186 17.2513Z" fill="#D30000"/>
<path d="M25.8077 0.133145C25.262 0.132452 24.7284 0.291813 24.2743 0.591053C23.8203 0.890294 23.4663 1.31596 23.2571 1.81416C23.048 2.31237 22.9931 2.86071 23.0994 3.38978C23.2056 3.91885 23.4684 4.40485 23.8542 4.78626C24.2401 5.16767 24.7318 5.42734 25.2671 5.5324C25.8023 5.63746 26.3571 5.58319 26.8611 5.37645C27.3652 5.16971 27.7958 4.81981 28.0986 4.37103C28.4013 3.92225 28.5625 3.39477 28.5618 2.85537C28.5618 2.13339 28.2717 1.44098 27.7552 0.930467C27.2387 0.41995 26.5382 0.133145 25.8077 0.133145Z" fill="#D30000"/>
<path d="M133.232 0C132.684 0 132.149 0.160478 131.694 0.46114C131.239 0.761802 130.884 1.18914 130.674 1.68913C130.465 2.18911 130.41 2.73928 130.517 3.27006C130.623 3.80084 130.887 4.28839 131.274 4.67106C131.661 5.05373 132.155 5.31433 132.692 5.41991C133.229 5.52549 133.785 5.4713 134.291 5.2642C134.797 5.0571 135.229 4.70639 135.533 4.25642C135.838 3.80644 136 3.27742 136 2.73624C135.999 2.01083 135.707 1.31539 135.188 0.802451C134.669 0.289507 133.966 0.000927045 133.232 0ZM133.232 5.03455C132.772 5.03455 132.322 4.89975 131.94 4.64721C131.558 4.39467 131.259 4.03573 131.084 3.61577C130.908 3.19581 130.861 2.73369 130.951 2.28787C131.041 1.84204 131.262 1.43252 131.588 1.1111C131.913 0.789673 132.327 0.570781 132.778 0.4821C133.229 0.39342 133.697 0.438934 134.122 0.612887C134.546 0.78684 134.91 1.08142 135.165 1.45937C135.421 1.83733 135.557 2.28168 135.557 2.73624C135.556 3.34551 135.311 3.92955 134.875 4.36036C134.439 4.79118 133.848 5.03362 133.232 5.03455Z" fill="#D30000"/>
<path d="M134.472 2.13364C134.472 1.91807 134.386 1.71133 134.231 1.5589C134.077 1.40646 133.868 1.32083 133.65 1.32083H132.09V4.12364H132.565V2.94996H133.356L133.923 4.10962H134.448L133.87 2.92193C134.044 2.87474 134.198 2.77182 134.307 2.62922C134.416 2.48662 134.474 2.31236 134.472 2.13364ZM133.65 2.48399H132.565V1.78329H133.657C133.751 1.78329 133.841 1.8202 133.908 1.88591C133.974 1.95161 134.012 2.04072 134.012 2.13364C134.012 2.22656 133.974 2.31567 133.908 2.38138C133.841 2.44708 133.751 2.48399 133.657 2.48399H133.65Z" fill="#D30000"/>
</svg>
